<svg version="1.1" id="Ebene_1" xmlns="http://www.w3.org/2000/svg" xmlns:xlink="http://www.w3.org/1999/xlink" x="0px" y="0px"
	 viewBox="0 0 701 240.6" style="enable-background:new 0 0 701 240.6;" xml:space="preserve">
<style type="text/css">
	.st0{fill:#FFFFFF;}
</style>
<path class="st0" d="M312.5,133.2l40.3,54.3h30.7l-48.8-64.7c-2.6-3.6-3.8-6.2-3.8-8.9s1.7-5.1,4.9-8.7l46.8-52.7h-30.9l-39.8,44.9
	c-6.1,7-8.9,11.9-8.9,16.6C303,120.2,306.4,125.1,312.5,133.2 M525.5,120.4c0-39.3,27.5-70.4,68.4-70.4s69.3,29.4,69.3,70.4
	c0,41-29.1,69.8-69.1,69.8C551.2,190.2,525.5,160.4,525.5,120.4L525.5,120.4z M636.6,120.2c0-27.5-16.9-47.9-42.6-47.9
	s-42,20-42,47.9s17.4,48.1,42,48.1C620,168.3,636.6,147.6,636.6,120.2z M451.1,187.6h-47.9v-22.3h52.6c15.1,0,22.9-4,22.9-14.5
	c0-9.4-6.1-12.4-22.5-17l-15.7-4.3c-29.3-8.1-39.2-17.5-39.2-39.8s13.2-37,45.2-37h47.9v22.6h-48.3c-13.4,0-20.1,3-20.1,12.6
	c0,9.1,6.1,13.4,21.6,17.4l16.3,4.1c27.3,7,40.1,16.8,40.1,38.7C504.1,173.5,490.1,187.6,451.1,187.6z M215,190.6
	c-34.6,0-55.5-18.5-55.5-54.7V52.8h25.4v81.5c0,19.6,6.3,34,30.1,34c23.8,0,30.1-13.4,30.1-34.2V52.6h25.4v83
	C270.5,171.5,249.7,190.6,215,190.6 M68.6,52.8H43v109.1c0,18.1,7.6,25.7,22.9,25.7h71.8v-22.1H78.2c-7.4,0-9.6-2.3-9.6-9.4V52.8z"
	/>
</svg>
