<svg width="272" height="62" viewBox="0 0 272 62" fill="none" xmlns="http://www.w3.org/2000/svg">
<path d="M118.069 36.6149L135.735 60.5252H149.167L127.765 32.0503C126.605 30.4732 126.107 29.3076 126.107 28.1517C126.107 26.9959 126.858 25.9086 128.263 24.3316L148.757 1.16564H135.238L117.816 20.9228C115.163 23.9887 113.914 26.1535 113.914 28.2301C113.914 30.8846 115.406 33.0396 118.06 36.6149M211.372 30.9728C211.372 13.7036 223.4 0 241.319 0C259.238 0 271.675 12.9494 271.675 30.9728C271.675 48.9962 258.906 61.6909 241.407 61.6909C222.658 61.6909 211.382 48.575 211.382 30.9728H211.372ZM260.058 30.8944C260.058 18.7776 252.673 9.80511 241.397 9.80511C230.121 9.80511 222.98 18.6111 222.98 30.8944C222.98 43.1777 230.608 52.0621 241.397 52.0621C252.761 52.0621 260.058 42.9329 260.058 30.8944ZM178.772 60.535H157.79V50.7397H180.85C187.483 50.7397 190.888 48.9962 190.888 44.3434C190.888 40.1902 188.234 38.8678 181.016 36.8696L174.129 34.9595C161.273 31.394 156.961 27.2408 156.961 17.4455C156.961 7.65014 162.765 1.17544 176.782 1.17544H197.765V11.1373H176.617C170.725 11.1373 167.828 12.4694 167.828 16.701C167.828 20.6877 170.481 22.5978 177.28 24.3414L184.411 26.1633C196.35 29.239 201.998 33.5489 201.998 43.1875C201.998 54.315 195.862 60.535 178.772 60.535ZM75.3442 61.8672C60.166 61.8672 51.0455 53.7371 51.0455 37.7903V1.244H62.1657V37.1046C62.1657 45.7343 64.9068 52.0523 75.354 52.0523C85.8012 52.0523 88.5422 46.1555 88.5422 37.0263V1.16564H99.6527V37.7022C99.6527 53.4726 90.5321 61.8574 75.354 61.8574M11.1983 1.244H0V49.2312C0 57.2046 3.31657 60.5252 10.0375 60.5252H41.4897V50.8083H15.422C12.1933 50.8083 11.1983 49.8092 11.1983 46.6551V1.244Z" fill="#FE005B"/>
</svg>
