<svg fill="none" height="1024" viewBox="0 0 1024 1024" width="1024" xmlns="http://www.w3.org/2000/svg" xmlns:xlink="http://www.w3.org/1999/xlink"><filter id="a" color-interpolation-filters="sRGB" filterUnits="userSpaceOnUse" height="1228" width="1244" x="-72" y="-72"><feFlood flood-opacity="0" result="BackgroundImageFix"/><feBlend in="SourceGraphic" in2="BackgroundImageFix" mode="normal" result="shape"/><feColorMatrix in="SourceAlpha" result="hardAlpha" type="matrix" values="0 0 0 0 0 0 0 0 0 0 0 0 0 0 0 0 0 0 127 0"/><feOffset dx="-72" dy="-72"/><feGaussianBlur stdDeviation="54"/><feComposite in2="hardAlpha" k2="-1" k3="1" operator="arithmetic"/><feColorMatrix type="matrix" values="0 0 0 0 0 0 0 0 0 0 0 0 0 0 0 0 0 0 0.25 0"/><feBlend in2="shape" mode="normal" result="effect1_innerShadow_3981_20791"/><feColorMatrix in="SourceAlpha" result="hardAlpha" type="matrix" values="0 0 0 0 0 0 0 0 0 0 0 0 0 0 0 0 0 0 127 0"/><feOffset dx="152" dy="132"/><feGaussianBlur stdDeviation="74"/><feComposite in2="hardAlpha" k2="-1" k3="1" operator="arithmetic"/><feColorMatrix type="matrix" values="0 0 0 0 1 0 0 0 0 1 0 0 0 0 1 0 0 0 0.15 0"/><feBlend in2="effect1_innerShadow_3981_20791" mode="normal" result="effect2_innerShadow_3981_20791"/><feColorMatrix in="SourceAlpha" result="hardAlpha" type="matrix" values="0 0 0 0 0 0 0 0 0 0 0 0 0 0 0 0 0 0 127 0"/><feOffset dx="32" dy="20"/><feGaussianBlur stdDeviation="50"/><feComposite in2="hardAlpha" k2="-1" k3="1" operator="arithmetic"/><feColorMatrix type="matrix" values="0 0 0 0 0 0 0 0 0 0 0 0 0 0 0 0 0 0 0.08 0"/><feBlend in2="effect2_innerShadow_3981_20791" mode="normal" result="effect3_innerShadow_3981_20791"/></filter><filter id="b" color-interpolation-filters="sRGB" filterUnits="userSpaceOnUse" height="352" width="747" x="142" y="352"><feFlood flood-opacity="0" result="BackgroundImageFix"/><feBlend in="SourceGraphic" in2="BackgroundImageFix" mode="normal" result="shape"/><feColorMatrix in="SourceAlpha" result="hardAlpha" type="matrix" values="0 0 0 0 0 0 0 0 0 0 0 0 0 0 0 0 0 0 127 0"/><feOffset dx="8" dy="12"/><feGaussianBlur stdDeviation="5"/><feComposite in2="hardAlpha" k2="-1" k3="1" operator="arithmetic"/><feColorMatrix type="matrix" values="0 0 0 0 0.120833 0 0 0 0 0.120833 0 0 0 0 0.120833 0 0 0 0.69 0"/><feBlend in2="shape" mode="normal" result="effect1_innerShadow_3981_20791"/></filter><linearGradient id="c" gradientUnits="userSpaceOnUse" x1="0" x2="1024" y1="0" y2="1024"><stop offset="0" stop-color="#8992d1"/><stop offset="1" stop-color="#646c9f"/></linearGradient><clipPath id="d"><path d="m0 0h1024v1024h-1024z"/></clipPath><g clip-path="url(#d)"><g filter="url(#a)"><rect fill="url(#c)" height="1024" rx="230" width="1024"/></g><g fill="#fff" filter="url(#b)"><path d="m212.459 354h-54.459c-8.837 0-16 7.163-16 16v203c0 66.826 54.174 121 121 121h44c66.826 0 121-54.174 121-121v-203c0-8.837-7.163-16-16-16h-56.548c-8.837 0-16 7.163-16 16v198.829c0 28.607-23.19 51.797-51.797 51.797-32.693 0-59.196-26.503-59.196-59.196v-191.43c0-8.837-7.163-16-16-16z"/><path d="m868.426 352h-68.495c-6.98 0-12.487 5.934-11.967 12.895l14.206 190c.468 6.263 5.686 11.105 11.966 11.105h45.412c6.409 0 11.687-5.037 11.987-11.44l8.878-190c.32-6.84-5.14-12.56-11.987-12.56z"/><ellipse cx="834" cy="649.5" rx="47" ry="44.5"/><path clip-rule="evenodd" d="m522 687h50c8.837 0 16-7.163 16-16v-80c0-8.837 7.163-16 16-16h33.5c61.58 0 111.5-49.92 111.5-111.5s-49.92-111.5-111.5-111.5h-115.5c-8.837 0-16 7.163-16 16v303c0 8.837 7.163 16 16 16zm70-252v58c0 6.627 5.373 12 12 12h14c20.987 0 38-17.013 38-38v-6c0-20.987-17.013-38-38-38h-14c-6.627 0-12 5.373-12 12z" fill-rule="evenodd"/></g></g></svg>